<svg xmlns="http://www.w3.org/2000/svg" viewBox="0 0 133.71 135.49"><title>Fichier 18</title><g id="Calque_2" data-name="Calque 2"><g id="Calque_14" data-name="Calque 14"><text transform="translate(64.02 53.78)" font-size="32.17" fill="#1d1d1b" font-family="Griffy-Regular, Griffy">G</text><text transform="matrix(-1, 0, 0, 1, 70.41, 53.78)" font-size="32.17" fill="#1d1d1b" font-family="Griffy-Regular, Griffy">G</text><text transform="translate(67.59 76.58) rotate(180)" font-size="32.17" fill="#1d1d1b" font-family="Griffy-Regular, Griffy">G</text><text transform="matrix(1, 0, 0, -1, 66.41, 76.58)" font-size="32.17" fill="#1d1d1b" font-family="Griffy-Regular, Griffy">G</text><text transform="matrix(0.67, -0.75, 0.75, 0.67, 25.81, 38.48)" font-size="19.56" fill="#1d1d1b" font-family="ArefRuqaa-Regular, Aref Ruqaa">G</text><text transform="matrix(0.81, -0.59, 0.59, 0.81, 34.1, 29.42)" font-size="19.56" fill="#1d1d1b" font-family="ArefRuqaa-Regular, Aref Ruqaa">e</text><text transform="translate(41 24.38) rotate(-27.23)" font-size="19.56" fill="#1d1d1b" font-family="ArefRuqaa-Regular, Aref Ruqaa">t</text><text transform="matrix(0.95, -0.33, 0.33, 0.95, 47.31, 21.1)" font-size="19.56" fill="#1d1d1b" font-family="ArefRuqaa-Regular, Aref Ruqaa">s</text><text transform="translate(53.86 18.81) rotate(-10.89)" font-size="19.56" fill="#1d1d1b" font-family="ArefRuqaa-Regular, Aref Ruqaa">s</text><text transform="matrix(1, -0.02, 0.02, 1, 60.64, 17.33)" font-size="19.56" fill="#1d1d1b" font-family="ArefRuqaa-Regular, Aref Ruqaa">o</text><text transform="translate(70.48 16.96) rotate(11.25)" font-size="19.56" fill="#1d1d1b" font-family="ArefRuqaa-Regular, Aref Ruqaa">n</text><text transform="translate(81.95 19.35) rotate(23.01)" font-size="19.56" fill="#1d1d1b" font-family="ArefRuqaa-Regular, Aref Ruqaa">e</text><text transform="translate(37.97 121.3) rotate(22.65)" font-size="17.82" fill="#1d1d1b" font-family="ArefRuqaa-Regular, Aref Ruqaa">C</text><text transform="translate(49.78 125.94) rotate(12.22)" font-size="17.82" fill="#1d1d1b" font-family="ArefRuqaa-Regular, Aref Ruqaa">e</text><text transform="matrix(1, 0.07, -0.07, 1, 58.94, 127.81)" font-size="17.82" fill="#1d1d1b" font-family="ArefRuqaa-Regular, Aref Ruqaa">r</text><text transform="translate(67.35 128.3) rotate(-3.55)" font-size="17.82" fill="#1d1d1b" font-family="ArefRuqaa-Regular, Aref Ruqaa">t</text><text transform="translate(75.07 127.74) rotate(-10.19)" font-size="17.82" fill="#1d1d1b" font-family="ArefRuqaa-Regular, Aref Ruqaa">i</text><text transform="matrix(0.96, -0.28, 0.28, 0.96, 81.54, 126.53)" font-size="17.82" fill="#1d1d1b" font-family="ArefRuqaa-Regular, Aref Ruqaa">f</text><text transform="matrix(0.92, -0.38, 0.38, 0.92, 87.96, 124.6)" font-size="17.82" fill="#1d1d1b" font-family="ArefRuqaa-Regular, Aref Ruqaa">i</text><text transform="translate(94.2 122.02) rotate(-30.04)" font-size="17.82" fill="#1d1d1b" font-family="ArefRuqaa-Regular, Aref Ruqaa">e</text><text transform="matrix(0.77, -0.64, 0.64, 0.77, 102.44, 117.2)" font-size="17.82" fill="#1d1d1b" font-family="ArefRuqaa-Regular, Aref Ruqaa">d</text></g><g id="Calque_13" data-name="Calque 13"><circle cx="66.85" cy="66.51" r="44.89" fill="none" stroke="#1d1d1b" stroke-miterlimit="10"/><circle cx="66.85" cy="66.85" r="66.35" fill="none" stroke="#1d1d1b" stroke-miterlimit="10"/></g></g></svg>